<svg xmlns="http://www.w3.org/2000/svg" xmlns:xlink="http://www.w3.org/1999/xlink" width="500" zoomAndPan="magnify" viewBox="0 0 375 374.999991" height="500" preserveAspectRatio="xMidYMid meet" version="1.0"><defs><clipPath id="f55c6bd33a"><path d="M 0 30.683594 L 374 30.683594 L 374 344.183594 L 0 344.183594 Z M 0 30.683594 " clip-rule="nonzero"/></clipPath></defs><g clip-path="url(#f55c6bd33a)"><path fill="#000000" d="M 270.5 36.707031 C 251.582031 30.574219 229.507812 27.742188 210.664062 35.039062 C 192.183594 42.191406 175.589844 54.246094 163.171875 69.75 C 152.898438 82.566406 145.527344 97.707031 141.644531 113.644531 C 139.71875 121.488281 138.628906 129.511719 138.449219 137.609375 C 138.121094 152.058594 141.679688 163.605469 149.304688 175.695312 C 164.117188 199.152344 200.0625 196.027344 222.027344 212.984375 C 232.886719 221.371094 239.492188 234.117188 249.261719 243.808594 C 275.113281 269.515625 317.191406 265.738281 343.953125 243.664062 C 358.292969 231.828125 367.261719 214.363281 371.292969 196.210938 C 386.578125 127.480469 334.367188 57.367188 270.5 36.707031 Z M 256.523438 162.699219 C 243.742188 162.699219 233.394531 152.351562 233.394531 139.570312 C 233.394531 126.789062 243.742188 116.441406 256.523438 116.441406 C 269.300781 116.441406 279.648438 126.789062 279.648438 139.570312 C 279.648438 152.351562 269.300781 162.699219 256.523438 162.699219 Z M 24.113281 162.699219 C 11.332031 162.699219 0.984375 152.351562 0.984375 139.570312 C 0.984375 126.789062 11.332031 116.441406 24.113281 116.441406 C 36.894531 116.441406 47.242188 126.789062 47.242188 139.570312 C 47.277344 152.351562 36.894531 162.699219 24.113281 162.699219 Z M 280.339844 303.464844 C 278.089844 302.339844 275.367188 303.246094 274.238281 305.460938 C 256.085938 341.550781 209.9375 338.683594 189.242188 329.132812 C 172.648438 321.472656 159.105469 306.914062 152.246094 289.886719 L 186.703125 256.15625 C 192.328125 250.636719 191.820312 241.339844 185.503906 236.65625 C 174.464844 228.488281 160.8125 223.660156 146.035156 223.660156 C 131.257812 223.660156 117.605469 228.488281 106.570312 236.65625 C 100.25 241.339844 99.742188 250.636719 105.371094 256.15625 L 138.957031 289.050781 C 132.203125 306.40625 118.476562 321.328125 101.632812 329.132812 C 80.863281 338.683594 34.714844 341.585938 16.5625 305.496094 C 15.4375 303.246094 12.714844 302.375 10.460938 303.5 C 8.210938 304.625 7.339844 307.347656 8.464844 309.601562 C 21.644531 335.851562 47.386719 344.347656 70.515625 344.347656 C 84.058594 344.347656 96.695312 341.40625 105.371094 337.414062 C 123.089844 329.207031 137.359375 314.648438 145.417969 297.039062 C 153.480469 314.648438 167.75 329.207031 185.464844 337.414062 C 194.144531 341.40625 206.78125 344.347656 220.324219 344.347656 C 243.414062 344.347656 269.15625 335.816406 282.371094 309.601562 C 283.460938 307.3125 282.554688 304.589844 280.339844 303.464844 Z M 158.054688 238.835938 C 159.070312 235.351562 165.0625 234.042969 171.414062 235.929688 C 177.769531 237.820312 182.089844 242.140625 181.074219 245.625 C 180.058594 249.109375 174.066406 250.417969 167.710938 248.53125 C 161.320312 246.679688 157.039062 242.320312 158.054688 238.835938 Z M 158.054688 238.835938 " fill-opacity="1" fill-rule="nonzero"/></g><path fill="#ffffff" d="M 279.648438 139.570312 C 279.648438 152.351562 269.300781 162.699219 256.523438 162.699219 C 243.742188 162.699219 233.394531 152.351562 233.394531 139.570312 C 233.394531 126.789062 243.742188 116.441406 256.523438 116.441406 C 269.300781 116.40625 279.648438 126.789062 279.648438 139.570312 Z M 171.414062 235.929688 C 165.0625 234.042969 159.070312 235.351562 158.054688 238.835938 C 157.039062 242.320312 161.359375 246.679688 167.710938 248.53125 C 174.066406 250.417969 180.058594 249.109375 181.074219 245.625 C 182.089844 242.175781 177.769531 237.820312 171.414062 235.929688 Z M 171.414062 235.929688 " fill-opacity="1" fill-rule="nonzero"/></svg>